<region> lovel=1 hivel=4 amp_velcurve_4=1 sample=../samples/kicks/kd22noreso/snare_on/opn/kd22noreso_opn_001.wav
<region> lovel=5 hivel=8 amp_velcurve_8=1 sample=../samples/kicks/kd22noreso/snare_on/opn/kd22noreso_opn_002.wav
<region> lovel=9 hivel=12 amp_velcurve_12=1 sample=../samples/kicks/kd22noreso/snare_on/opn/kd22noreso_opn_003.wav
<region> lovel=13 hivel=17 amp_velcurve_17=1 sample=../samples/kicks/kd22noreso/snare_on/opn/kd22noreso_opn_004.wav
<region> lovel=18 hivel=22 amp_velcurve_22=1 sample=../samples/kicks/kd22noreso/snare_on/opn/kd22noreso_opn_005.wav
<region> lovel=23 hivel=27 amp_velcurve_27=1 sample=../samples/kicks/kd22noreso/snare_on/opn/kd22noreso_opn_006.wav
<region> lovel=28 hivel=32 amp_velcurve_32=1 sample=../samples/kicks/kd22noreso/snare_on/opn/kd22noreso_opn_007.wav
<region> lovel=33 hivel=37 amp_velcurve_37=1 sample=../samples/kicks/kd22noreso/snare_on/opn/kd22noreso_opn_008.wav
<region> lovel=38 hivel=42 amp_velcurve_42=1 sample=../samples/kicks/kd22noreso/snare_on/opn/kd22noreso_opn_009.wav
<region> lovel=43 hivel=47 amp_velcurve_47=1 sample=../samples/kicks/kd22noreso/snare_on/opn/kd22noreso_opn_010.wav
<region> lovel=48 hivel=52 amp_velcurve_52=1 sample=../samples/kicks/kd22noreso/snare_on/opn/kd22noreso_opn_011.wav
<region> lovel=53 hivel=57 amp_velcurve_57=1 sample=../samples/kicks/kd22noreso/snare_on/opn/kd22noreso_opn_012.wav
<region> lovel=58 hivel=62 amp_velcurve_62=1 sample=../samples/kicks/kd22noreso/snare_on/opn/kd22noreso_opn_013.wav
<region> lovel=63 hivel=67 amp_velcurve_67=1 sample=../samples/kicks/kd22noreso/snare_on/opn/kd22noreso_opn_014.wav
<region> lovel=68 hivel=72 amp_velcurve_72=1 sample=../samples/kicks/kd22noreso/snare_on/opn/kd22noreso_opn_015.wav
<region> lovel=73 hivel=77 amp_velcurve_77=1 sample=../samples/kicks/kd22noreso/snare_on/opn/kd22noreso_opn_016.wav
<region> lovel=78 hivel=82 amp_velcurve_82=1 sample=../samples/kicks/kd22noreso/snare_on/opn/kd22noreso_opn_017.wav
<region> lovel=83 hivel=87 amp_velcurve_87=1 sample=../samples/kicks/kd22noreso/snare_on/opn/kd22noreso_opn_018.wav
<region> lovel=88 hivel=92 amp_velcurve_92=1 sample=../samples/kicks/kd22noreso/snare_on/opn/kd22noreso_opn_019.wav
<region> lovel=93 hivel=97 amp_velcurve_97=1 sample=../samples/kicks/kd22noreso/snare_on/opn/kd22noreso_opn_020.wav
<region> lovel=98 hivel=102 amp_velcurve_102=1 sample=../samples/kicks/kd22noreso/snare_on/opn/kd22noreso_opn_021.wav
<region> lovel=103 hivel=107 amp_velcurve_107=1 sample=../samples/kicks/kd22noreso/snare_on/opn/kd22noreso_opn_022.wav
<region> lovel=108 hivel=112 amp_velcurve_112=1 sample=../samples/kicks/kd22noreso/snare_on/opn/kd22noreso_opn_023.wav
<region> lovel=113 hivel=117 amp_velcurve_117=1 sample=../samples/kicks/kd22noreso/snare_on/opn/kd22noreso_opn_024.wav
<region> lovel=118 hivel=122 amp_velcurve_122=1 sample=../samples/kicks/kd22noreso/snare_on/opn/kd22noreso_opn_025.wav
<region> lovel=123 hivel=127 amp_velcurve_127=1 sample=../samples/kicks/kd22noreso/snare_on/opn/kd22noreso_opn_026.wav
